<mxfile host="app.diagrams.net" modified="2023-09-02T10:09:28.464Z" agent="Mozilla/5.0 (Windows NT 10.0; Win64; x64) AppleWebKit/537.36 (KHTML, like Gecko) Chrome/116.0.0.0 Safari/537.36 Edg/116.0.1938.54" etag="HtDaEZbzEOa2xwqJfyCc" version="21.6.8" type="github">
  <diagram name="Page-1" id="58cdce13-f638-feb5-8d6f-7d28b1aa9fa0">
    <mxGraphModel dx="1273" dy="752" grid="1" gridSize="10" guides="1" tooltips="1" connect="1" arrows="1" fold="1" page="1" pageScale="1" pageWidth="1100" pageHeight="850" background="none" math="0" shadow="0">
      <root>
        <mxCell id="0" />
        <mxCell id="1" parent="0" />
        <mxCell id="z4Sh3F2XKsgmWR4OSHHu-17" value="" style="rounded=0;whiteSpace=wrap;html=1;strokeColor=#CCCCCC;" vertex="1" parent="1">
          <mxGeometry width="700" height="350" as="geometry" />
        </mxCell>
        <mxCell id="z4Sh3F2XKsgmWR4OSHHu-18" value="" style="ellipse;html=1;shape=startState;fillColor=#000000;strokeColor=#ff0000;rounded=1;shadow=0;comic=0;labelBackgroundColor=none;fontFamily=Verdana;fontSize=12;fontColor=#000000;align=center;direction=south;" vertex="1" parent="1">
          <mxGeometry x="40" y="85" width="30" height="30" as="geometry" />
        </mxCell>
        <mxCell id="z4Sh3F2XKsgmWR4OSHHu-19" value="需求待校验" style="rounded=1;whiteSpace=wrap;html=1;arcSize=24;fillColor=#ffffc0;strokeColor=#ff0000;shadow=0;comic=0;labelBackgroundColor=none;fontFamily=Verdana;fontSize=12;fontColor=#000000;align=center;" vertex="1" parent="1">
          <mxGeometry x="150" y="70" width="120" height="60" as="geometry" />
        </mxCell>
        <mxCell id="z4Sh3F2XKsgmWR4OSHHu-20" value="" style="edgeStyle=orthogonalEdgeStyle;rounded=0;orthogonalLoop=1;jettySize=auto;html=1;entryX=1;entryY=0.5;entryDx=0;entryDy=0;" edge="1" parent="1" source="z4Sh3F2XKsgmWR4OSHHu-21" target="z4Sh3F2XKsgmWR4OSHHu-35">
          <mxGeometry relative="1" as="geometry">
            <mxPoint x="590" y="320" as="targetPoint" />
            <Array as="points">
              <mxPoint x="590" y="295" />
            </Array>
          </mxGeometry>
        </mxCell>
        <mxCell id="z4Sh3F2XKsgmWR4OSHHu-21" value="完成推量" style="rounded=1;whiteSpace=wrap;html=1;arcSize=24;fillColor=#ffffc0;strokeColor=#ff0000;shadow=0;comic=0;labelBackgroundColor=none;fontFamily=Verdana;fontSize=12;fontColor=#000000;align=center;" vertex="1" parent="1">
          <mxGeometry x="530" y="180" width="120" height="60" as="geometry" />
        </mxCell>
        <mxCell id="z4Sh3F2XKsgmWR4OSHHu-22" style="edgeStyle=orthogonalEdgeStyle;html=1;labelBackgroundColor=none;endArrow=open;endSize=8;strokeColor=#ff0000;fontFamily=Verdana;fontSize=12;align=left;" edge="1" parent="1" source="z4Sh3F2XKsgmWR4OSHHu-18" target="z4Sh3F2XKsgmWR4OSHHu-19">
          <mxGeometry relative="1" as="geometry" />
        </mxCell>
        <mxCell id="z4Sh3F2XKsgmWR4OSHHu-23" style="edgeStyle=orthogonalEdgeStyle;html=1;labelBackgroundColor=none;endArrow=open;endSize=8;strokeColor=#ff0000;fontFamily=Verdana;fontSize=12;align=left;entryX=0;entryY=0.5;" edge="1" parent="1" source="z4Sh3F2XKsgmWR4OSHHu-19">
          <mxGeometry relative="1" as="geometry">
            <Array as="points">
              <mxPoint x="320" y="100" />
              <mxPoint x="320" y="100" />
            </Array>
            <mxPoint x="350" y="100" as="targetPoint" />
          </mxGeometry>
        </mxCell>
        <mxCell id="z4Sh3F2XKsgmWR4OSHHu-24" value="开始" style="text;html=1;align=center;verticalAlign=middle;resizable=0;points=[];autosize=1;strokeColor=none;fillColor=none;" vertex="1" parent="1">
          <mxGeometry x="30" y="115" width="50" height="30" as="geometry" />
        </mxCell>
        <mxCell id="z4Sh3F2XKsgmWR4OSHHu-25" value="生成需求量" style="text;html=1;align=center;verticalAlign=middle;resizable=0;points=[];autosize=1;strokeColor=none;fillColor=none;" vertex="1" parent="1">
          <mxGeometry x="65" y="70" width="80" height="30" as="geometry" />
        </mxCell>
        <mxCell id="z4Sh3F2XKsgmWR4OSHHu-26" value="风控规则" style="rhombus;whiteSpace=wrap;html=1;fontColor=#000000;fillColor=#ffffc0;strokeColor=#ff0000;" vertex="1" parent="1">
          <mxGeometry x="345" y="80" width="80" height="40" as="geometry" />
        </mxCell>
        <mxCell id="z4Sh3F2XKsgmWR4OSHHu-27" value="未命中" style="edgeStyle=orthogonalEdgeStyle;html=1;align=left;verticalAlign=bottom;endArrow=open;endSize=8;strokeColor=#ff0000;rounded=0;" edge="1" parent="1" source="z4Sh3F2XKsgmWR4OSHHu-26">
          <mxGeometry x="-1" relative="1" as="geometry">
            <mxPoint x="525" y="100" as="targetPoint" />
          </mxGeometry>
        </mxCell>
        <mxCell id="z4Sh3F2XKsgmWR4OSHHu-28" value="命中" style="edgeStyle=orthogonalEdgeStyle;html=1;align=left;verticalAlign=top;endArrow=open;endSize=8;strokeColor=#ff0000;rounded=0;" edge="1" parent="1" source="z4Sh3F2XKsgmWR4OSHHu-26">
          <mxGeometry x="-1" relative="1" as="geometry">
            <mxPoint x="385" y="180" as="targetPoint" />
          </mxGeometry>
        </mxCell>
        <mxCell id="z4Sh3F2XKsgmWR4OSHHu-29" value="风控中心返检" style="text;html=1;align=center;verticalAlign=middle;resizable=0;points=[];autosize=1;strokeColor=none;fillColor=none;" vertex="1" parent="1">
          <mxGeometry x="260" y="70" width="100" height="30" as="geometry" />
        </mxCell>
        <mxCell id="z4Sh3F2XKsgmWR4OSHHu-30" value="" style="edgeStyle=orthogonalEdgeStyle;rounded=0;orthogonalLoop=1;jettySize=auto;html=1;" edge="1" parent="1" source="z4Sh3F2XKsgmWR4OSHHu-31" target="z4Sh3F2XKsgmWR4OSHHu-35">
          <mxGeometry relative="1" as="geometry" />
        </mxCell>
        <mxCell id="z4Sh3F2XKsgmWR4OSHHu-31" value="需求异常" style="rounded=1;whiteSpace=wrap;html=1;arcSize=24;fillColor=#ffffc0;strokeColor=#ff0000;shadow=0;comic=0;labelBackgroundColor=none;fontFamily=Verdana;fontSize=12;fontColor=#000000;align=center;" vertex="1" parent="1">
          <mxGeometry x="325" y="180" width="120" height="60" as="geometry" />
        </mxCell>
        <mxCell id="z4Sh3F2XKsgmWR4OSHHu-32" value="" style="edgeStyle=orthogonalEdgeStyle;rounded=0;orthogonalLoop=1;jettySize=auto;html=1;" edge="1" parent="1" source="z4Sh3F2XKsgmWR4OSHHu-33" target="z4Sh3F2XKsgmWR4OSHHu-21">
          <mxGeometry relative="1" as="geometry" />
        </mxCell>
        <mxCell id="z4Sh3F2XKsgmWR4OSHHu-33" value="需求正常" style="rounded=1;whiteSpace=wrap;html=1;arcSize=24;fillColor=#ffffc0;strokeColor=#ff0000;shadow=0;comic=0;labelBackgroundColor=none;fontFamily=Verdana;fontSize=12;fontColor=#000000;align=center;" vertex="1" parent="1">
          <mxGeometry x="530" y="70" width="120" height="60" as="geometry" />
        </mxCell>
        <mxCell id="z4Sh3F2XKsgmWR4OSHHu-34" value="推量切款" style="text;html=1;align=center;verticalAlign=middle;resizable=0;points=[];autosize=1;strokeColor=none;fillColor=none;" vertex="1" parent="1">
          <mxGeometry x="590" y="140" width="70" height="30" as="geometry" />
        </mxCell>
        <mxCell id="z4Sh3F2XKsgmWR4OSHHu-35" value="" style="ellipse;html=1;shape=endState;fillColor=#000000;strokeColor=#ff0000;rounded=1;shadow=0;comic=0;labelBackgroundColor=none;fontFamily=Verdana;fontSize=12;fontColor=#000000;align=center;" vertex="1" parent="1">
          <mxGeometry x="370" y="280" width="30" height="30" as="geometry" />
        </mxCell>
        <mxCell id="z4Sh3F2XKsgmWR4OSHHu-36" value="结束" style="text;html=1;align=center;verticalAlign=middle;resizable=0;points=[];autosize=1;strokeColor=none;fillColor=none;" vertex="1" parent="1">
          <mxGeometry x="360" y="310" width="50" height="30" as="geometry" />
        </mxCell>
        <mxCell id="z4Sh3F2XKsgmWR4OSHHu-37" value="需求量状态" style="text;html=1;align=center;verticalAlign=middle;resizable=0;points=[];autosize=1;strokeColor=none;fillColor=none;fontSize=16;fontStyle=1" vertex="1" parent="1">
          <mxGeometry width="100" height="30" as="geometry" />
        </mxCell>
      </root>
    </mxGraphModel>
  </diagram>
</mxfile>
